HIERARCHY
ROOT Hips
{
	OFFSET 0.000000 71.427986 0.000000
	CHANNELS 6 Xposition Yposition Zposition Xrotation Yrotation Zrotation
	JOINT Pelvis
	{
		OFFSET 0.000000 0.000000 0.000000
		CHANNELS 3 Xrotation Yrotation Zrotation
		JOINT LeftUpLeg
		{
			OFFSET 6.797100 -2.508499 -1.318700
			CHANNELS 3 Xrotation Yrotation Zrotation
			JOINT LeftLeg
			{
				OFFSET 0.069008 -29.241863 0.690200
				CHANNELS 3 Xrotation Yrotation Zrotation
				JOINT LeftFoot
				{
					OFFSET -0.069008 -29.568123 -0.266800
					CHANNELS 3 Xrotation Yrotation Zrotation
					JOINT LeftToeBase
					{
						OFFSET 3.145500 -8.631000 16.059900
						CHANNELS 3 Xrotation Yrotation Zrotation
						End Site
						{
							OFFSET 0.000000 18.501587 0.000000
						}
					}
				}
			}
			JOINT Left_ShortSleeve
			{
				OFFSET 0.265923 -10.480953 1.153800
				CHANNELS 3 Xrotation Yrotation Zrotation
				End Site
				{
					OFFSET 1.725763 19.823879 0.000000
				}
			}
		}
		JOINT RightUpLeg
		{
			OFFSET -6.797100 -2.508499 -1.318700
			CHANNELS 3 Xrotation Yrotation Zrotation
			JOINT RightLeg
			{
				OFFSET -0.082453 -29.241932 0.688000
				CHANNELS 3 Xrotation Yrotation Zrotation
				JOINT RightFoot
				{
					OFFSET 0.082453 -29.568058 -0.264600
					CHANNELS 3 Xrotation Yrotation Zrotation
					JOINT RightToeBase
					{
						OFFSET -3.115300 -8.682800 16.113400
						CHANNELS 3 Xrotation Yrotation Zrotation
						End Site
						{
							OFFSET 0.000000 18.567114 0.000000
						}
					}
				}
			}
			JOINT Right_ShortSleeve
			{
				OFFSET -0.265923 -10.480953 1.153800
				CHANNELS 3 Xrotation Yrotation Zrotation
				End Site
				{
					OFFSET -1.725766 19.823910 0.000000
				}
			}
		}
	}
	JOINT Spine
	{
		OFFSET 0.000000 13.368103 0.470500
		CHANNELS 3 Xrotation Yrotation Zrotation
		JOINT Spine1
		{
			OFFSET 0.147000 13.837402 0.538800
			CHANNELS 3 Xrotation Yrotation Zrotation
			JOINT Spine2
			{
				OFFSET 0.168000 16.242897 -1.435500
				CHANNELS 3 Xrotation Yrotation Zrotation
				JOINT Neck
				{
					OFFSET 0.217200 18.631500 -1.679100
					CHANNELS 3 Xrotation Yrotation Zrotation
					JOINT Head
					{
						OFFSET 0.000000 6.599396 1.385900
						CHANNELS 3 Xrotation Yrotation Zrotation
						JOINT Hat
						{
							OFFSET -0.532200 27.220596 -10.096100
							CHANNELS 3 Xrotation Yrotation Zrotation
							End Site
							{
								OFFSET 0.000000 22.029861 0.000000
							}
						}
						JOINT HairD
						{
							OFFSET -10.777400 17.437393 -1.325900
							CHANNELS 3 Xrotation Yrotation Zrotation
							JOINT HairD1
							{
								OFFSET -3.290299 -11.051193 1.062200
								CHANNELS 3 Xrotation Yrotation Zrotation
								End Site
								{
									OFFSET 0.000000 11.579437 0.000000
								}
							}
						}
						JOINT HairB
						{
							OFFSET -10.777400 17.437393 1.467900
							CHANNELS 3 Xrotation Yrotation Zrotation
							JOINT HairB1
							{
								OFFSET -1.561200 -12.956299 3.590200
								CHANNELS 3 Xrotation Yrotation Zrotation
								End Site
								{
									OFFSET 0.000000 13.534866 0.000000
								}
							}
						}
						JOINT HairA
						{
							OFFSET 9.713100 17.437393 1.467900
							CHANNELS 3 Xrotation Yrotation Zrotation
							JOINT HairA1
							{
								OFFSET 1.561200 -12.956299 3.590200
								CHANNELS 3 Xrotation Yrotation Zrotation
								End Site
								{
									OFFSET 0.000000 13.534866 0.000000
								}
							}
						}
						JOINT HairC
						{
							OFFSET 9.713100 17.437393 -1.325900
							CHANNELS 3 Xrotation Yrotation Zrotation
							JOINT HairC1
							{
								OFFSET 3.290300 -11.051193 1.062200
								CHANNELS 3 Xrotation Yrotation Zrotation
								End Site
								{
									OFFSET 0.000000 11.579437 0.000000
								}
							}
						}
					}
				}
				JOINT LeftShoulder
				{
					OFFSET 5.101800 15.108002 -2.763700
					CHANNELS 3 Xrotation Yrotation Zrotation
					JOINT LeftArm
					{
						OFFSET 9.825497 2.506317 -1.597400
						CHANNELS 3 Xrotation Yrotation Zrotation
						JOINT LeftForeArm
						{
							OFFSET 21.966244 0.000000 0.000000
							CHANNELS 3 Xrotation Yrotation Zrotation
							JOINT LeftHand
							{
								OFFSET 33.879036 0.000000 0.000000
								CHANNELS 3 Xrotation Yrotation Zrotation
								JOINT LeftHandThumb1
								{
									OFFSET 6.715286 -2.359680 3.363841
									CHANNELS 3 Xrotation Yrotation Zrotation
									JOINT LeftHandThumb2
									{
										OFFSET 2.507072 -1.447464 1.447461
										CHANNELS 3 Xrotation Yrotation Zrotation
										JOINT LeftHandThumb3
										{
											OFFSET 2.898338 -1.673355 1.673357
											CHANNELS 3 Xrotation Yrotation Zrotation
											End Site
											{
												OFFSET -0.295959 3.727692 -0.131651
											}
										}
									}
								}
								JOINT LeftHandIndex1
								{
									OFFSET 14.190811 -0.254547 3.840278
									CHANNELS 3 Xrotation Yrotation Zrotation
									JOINT LeftHandIndex2
									{
										OFFSET 3.551727 0.000000 -0.000000
										CHANNELS 3 Xrotation Yrotation Zrotation
										JOINT LeftHandIndex3
										{
											OFFSET 2.894196 0.000000 0.000000
											CHANNELS 3 Xrotation Yrotation Zrotation
											End Site
											{
												OFFSET -1.000603 2.690872 0.366626
											}
										}
									}
								}
								JOINT LeftHandMiddle1
								{
									OFFSET 13.776489 0.000000 0.000000
									CHANNELS 3 Xrotation Yrotation Zrotation
									JOINT LeftHandMiddle2
									{
										OFFSET 3.438232 0.000000 0.000000
										CHANNELS 3 Xrotation Yrotation Zrotation
										JOINT LeftHandMiddle3
										{
											OFFSET 3.691551 0.000000 0.000000
											CHANNELS 3 Xrotation Yrotation Zrotation
											End Site
											{
												OFFSET -1.082298 3.499527 0.457670
											}
										}
									}
								}
								JOINT LeftHandRing1
								{
									OFFSET 13.966164 -0.268127 -3.067488
									CHANNELS 3 Xrotation Yrotation Zrotation
									JOINT LeftHandRing2
									{
										OFFSET 3.162567 0.000000 0.000000
										CHANNELS 3 Xrotation Yrotation Zrotation
										JOINT LeftHandRing3
										{
											OFFSET 3.324348 0.000000 0.000000
											CHANNELS 3 Xrotation Yrotation Zrotation
											End Site
											{
												OFFSET -0.861900 3.184998 0.405154
											}
										}
									}
								}
								JOINT LeftHandPinky1
								{
									OFFSET 13.131393 -0.168503 -5.746925
									CHANNELS 3 Xrotation Yrotation Zrotation
									JOINT LeftHandPinky2
									{
										OFFSET 2.849182 0.000000 0.000000
										CHANNELS 3 Xrotation Yrotation Zrotation
										JOINT LeftHandPinky3
										{
											OFFSET 2.805038 0.000000 0.000000
											CHANNELS 3 Xrotation Yrotation Zrotation
											End Site
											{
												OFFSET -0.882500 2.642609 0.325652
											}
										}
									}
								}
							}
							JOINT Left_Sleeve
							{
								OFFSET 6.592125 -0.646545 0.805568
								CHANNELS 3 Xrotation Yrotation Zrotation
								End Site
								{
									OFFSET -0.000179 20.275787 -0.000000
								}
							}
						}
					}
				}
				JOINT RightShoulder
				{
					OFFSET -5.731700 15.108002 -2.763700
					CHANNELS 3 Xrotation Yrotation Zrotation
					JOINT RightArm
					{
						OFFSET -9.825497 2.506317 -1.597400
						CHANNELS 3 Xrotation Yrotation Zrotation
						JOINT RightForeArm
						{
							OFFSET -21.966242 0.000000 0.000000
							CHANNELS 3 Xrotation Yrotation Zrotation
							JOINT RightHand
							{
								OFFSET -33.879032 0.000000 0.000000
								CHANNELS 3 Xrotation Yrotation Zrotation
								JOINT RightHandThumb1
								{
									OFFSET -6.715286 -2.359680 3.363841
									CHANNELS 3 Xrotation Yrotation Zrotation
									JOINT RightHandThumb2
									{
										OFFSET -2.507072 -1.447464 1.447461
										CHANNELS 3 Xrotation Yrotation Zrotation
										JOINT RightHandThumb3
										{
											OFFSET -2.898338 -1.673355 1.673357
											CHANNELS 3 Xrotation Yrotation Zrotation
											End Site
											{
												OFFSET 0.295959 3.727692 -0.131651
											}
										}
									}
								}
								JOINT RightHandIndex1
								{
									OFFSET -14.190811 -0.254547 3.840278
									CHANNELS 3 Xrotation Yrotation Zrotation
									JOINT RightHandIndex2
									{
										OFFSET -3.551727 0.000000 -0.000000
										CHANNELS 3 Xrotation Yrotation Zrotation
										JOINT RightHandIndex3
										{
											OFFSET -2.894196 0.000000 0.000000
											CHANNELS 3 Xrotation Yrotation Zrotation
											End Site
											{
												OFFSET 1.000603 2.690872 0.366626
											}
										}
									}
								}
								JOINT RightHandMiddle1
								{
									OFFSET -13.776489 0.000000 0.000000
									CHANNELS 3 Xrotation Yrotation Zrotation
									JOINT RightHandMiddle2
									{
										OFFSET -3.438232 0.000000 0.000000
										CHANNELS 3 Xrotation Yrotation Zrotation
										JOINT RightHandMiddle3
										{
											OFFSET -3.691551 0.000000 0.000000
											CHANNELS 3 Xrotation Yrotation Zrotation
											End Site
											{
												OFFSET 1.082298 3.499527 0.457670
											}
										}
									}
								}
								JOINT RightHandRing1
								{
									OFFSET -13.966164 -0.268127 -3.067488
									CHANNELS 3 Xrotation Yrotation Zrotation
									JOINT RightHandRing2
									{
										OFFSET -3.162567 0.000000 0.000000
										CHANNELS 3 Xrotation Yrotation Zrotation
										JOINT RightHandRing3
										{
											OFFSET -3.324348 0.000000 0.000000
											CHANNELS 3 Xrotation Yrotation Zrotation
											End Site
											{
												OFFSET 0.861900 3.184998 0.405154
											}
										}
									}
								}
								JOINT RightHandPinky1
								{
									OFFSET -13.131393 -0.168503 -5.746925
									CHANNELS 3 Xrotation Yrotation Zrotation
									JOINT RightHandPinky2
									{
										OFFSET -2.849182 0.000000 0.000000
										CHANNELS 3 Xrotation Yrotation Zrotation
										JOINT RightHandPinky3
										{
											OFFSET -2.805038 0.000000 0.000000
											CHANNELS 3 Xrotation Yrotation Zrotation
											End Site
											{
												OFFSET 0.882500 2.642609 0.325652
											}
										}
									}
								}
							}
							JOINT Right_Sleeve
							{
								OFFSET -6.592125 -0.646545 0.805568
								CHANNELS 3 Xrotation Yrotation Zrotation
								End Site
								{
									OFFSET 0.000179 20.275787 -0.000000
								}
							}
						}
					}
				}
				JOINT Bind_Right_JacketString
				{
					OFFSET -3.534800 11.969597 7.200700
					CHANNELS 3 Xrotation Yrotation Zrotation
					JOINT Bind_Right_JacketString1
					{
						OFFSET -0.319900 -6.102600 2.794100
						CHANNELS 3 Xrotation Yrotation Zrotation
						End Site
						{
							OFFSET 0.000000 6.719452 0.000000
						}
					}
				}
				JOINT Bind_Left_JacketString
				{
					OFFSET 2.904800 11.969597 7.200700
					CHANNELS 3 Xrotation Yrotation Zrotation
					JOINT Bind_Left_JacketString1
					{
						OFFSET 0.364800 -5.904503 3.186800
						CHANNELS 3 Xrotation Yrotation Zrotation
						End Site
						{
							OFFSET 0.000000 6.719513 0.000000
						}
					}
				}
				JOINT HairE
				{
					OFFSET 5.915200 17.612701 -11.592200
					CHANNELS 3 Xrotation Yrotation Zrotation
					JOINT HairE1
					{
						OFFSET 0.289200 -7.171898 -1.284500
						CHANNELS 3 Xrotation Yrotation Zrotation
						End Site
						{
							OFFSET 0.000000 7.291756 0.000000
						}
					}
				}
				JOINT HairF
				{
					OFFSET -0.864800 17.612701 -11.592200
					CHANNELS 3 Xrotation Yrotation Zrotation
					JOINT HairF1
					{
						OFFSET 0.000000 -14.087097 -2.127501
						CHANNELS 3 Xrotation Yrotation Zrotation
						End Site
						{
							OFFSET 0.000000 14.246841 0.000000
						}
					}
				}
				JOINT HairG
				{
					OFFSET -8.087700 17.612701 -11.592200
					CHANNELS 3 Xrotation Yrotation Zrotation
					JOINT HairG1
					{
						OFFSET -0.293600 -6.081398 -0.910100
						CHANNELS 3 Xrotation Yrotation Zrotation
						End Site
						{
							OFFSET 0.000000 6.156120 0.000000
						}
					}
				}
			}
		}
	}
	JOINT Pouch
	{
		OFFSET 0.000000 4.394501 10.847300
		CHANNELS 3 Xrotation Yrotation Zrotation
		End Site
		{
			OFFSET 0.000000 21.880577 0.000000
		}
	}
	JOINT Bag
	{
		OFFSET -13.229000 4.813004 -0.593300
		CHANNELS 3 Xrotation Yrotation Zrotation
		End Site
		{
			OFFSET 0.000000 21.880577 0.000000
		}
	}
	JOINT OccupyGuyFacialAnim_Joint
	{
		OFFSET 1.000000 -70.206398 -1.655000
		CHANNELS 3 Xrotation Yrotation Zrotation
		End Site
		{
			OFFSET 0.000000 21.880577 0.000000
		}
	}
}
MOTION
Frames: 4
Frame Time: 0.033333
-0.647009 69.220924 105.224014 -3.007568 1.341248 -3.254087 0.000000 0.000000 -0.000000 -14.624639 6.243741 3.886470 68.713882 21.887210 1.057103 5.714088 -0.150876 1.656223 -0.000001 0.000001 -0.000001 0.000000 0.000001 0.000000 -14.956979 -2.212488 9.289449 23.073888 -10.542170 -0.404239 -7.723955 0.286053 -4.785638 0.000000 0.000001 0.000000 0.000001 -0.000000 -0.000000 1.976890 -1.975260 1.417954 3.932451 -3.661040 1.487981 3.932455 -3.661044 1.487981 -7.945726 1.239747 0.385688 4.094549 6.509052 -0.647661 -0.000000 0.000000 0.000000 -0.000000 0.000000 0.000000 -0.000000 0.000000 0.000000 -0.000000 0.000000 0.000000 -0.000000 0.000000 0.000000 -0.000000 0.000000 0.000000 -0.000000 0.000000 0.000000 -0.000000 0.000000 0.000000 -0.000000 0.000000 0.000000 0.490636 -10.000646 -11.723501 -5.270866 -9.501008 -53.960967 16.633283 -26.365965 7.896163 -5.050124 -8.774447 5.018277 25.111245 -2.687235 20.499109 9.304984 24.441166 -0.847866 0.000000 0.000001 -0.000002 0.599983 6.911490 -23.883881 2.733485 1.542668 -36.765990 0.000003 -0.000000 -0.000000 0.976156 7.422058 -32.221721 5.809222 1.256777 -45.781109 0.000003 -0.000002 -0.000003 -1.227815 6.340706 -44.477854 7.491176 2.055264 -50.574446 0.000001 -0.000002 -0.000002 -5.698665 1.174844 -43.952752 10.001150 3.459252 -50.341967 0.000001 -0.000001 0.000001 0.000003 0.000000 -0.000001 0.815197 1.566850 20.387109 -4.346718 -2.222068 61.347256 18.033721 8.691120 -2.962014 -4.230769 15.136370 -13.013779 3.824809 -12.345970 -1.042565 4.523897 -9.504798 0.488636 0.000001 -0.000001 -0.000002 3.545368 -9.668670 69.326693 8.886337 -3.241681 112.372567 0.000001 0.000001 0.000000 5.660027 -9.815699 93.151711 8.809078 -2.682468 83.366284 0.000002 -0.000000 0.000008 4.831693 -12.380514 97.852487 10.912787 -3.225624 91.663516 -0.000001 -0.000002 -0.000000 0.270007 -10.740426 93.149772 10.737839 -3.968352 60.274316 -0.000000 0.000001 -0.000003 -0.000001 0.000000 -0.000000 -0.000000 0.000000 -0.000000 0.000000 0.000000 -0.000000 -0.000000 0.000000 0.000000 -0.000000 0.000000 0.000000 -0.000000 0.000000 -0.000000 0.000000 0.000000 -0.000000 -0.000000 0.000000 0.000000 -0.000000 0.000000 0.000000 -0.000000 0.000000 -0.000000 0.000000 0.000000 -0.000000 0.000000 0.000000 -0.000000 0.000000 0.000000 -0.000000 0.000000 0.000000 -0.000000 
-0.371527 69.582703 108.391624 -2.845080 0.938145 -2.069169 -0.000000 0.000000 0.000000 -18.495942 6.171002 1.543508 68.471164 22.211189 1.129234 -0.537702 -0.161119 2.914567 -0.000003 0.000002 -0.000001 -0.000002 0.000001 -0.000001 -12.373016 -2.210039 7.749166 23.991839 -8.818688 -0.389341 -11.140985 0.414005 -4.161504 -0.000000 -0.000000 -0.000000 0.000001 0.000000 -0.000000 1.909381 -1.687288 1.156246 3.795910 -3.159687 1.023245 3.795908 -3.159689 1.023245 -4.896008 1.275923 0.061366 1.818813 6.082133 -0.199494 -0.000000 -0.000000 -0.000000 -0.000000 -0.000000 -0.000000 -0.000000 -0.000000 -0.000000 -0.000000 -0.000000 -0.000000 -0.000000 -0.000000 -0.000000 -0.000000 -0.000000 -0.000000 -0.000000 -0.000000 -0.000000 -0.000000 -0.000000 -0.000000 -0.000000 -0.000000 -0.000000 0.463897 -9.452570 -12.298644 -2.981000 -9.189039 -56.801414 17.403662 -22.794841 7.243794 -5.235461 -8.721174 3.396468 25.111250 -2.687235 20.499110 9.304982 24.441171 -0.847871 0.000001 -0.000000 0.000000 0.599990 6.911492 -23.883881 2.733484 1.542663 -36.765990 0.000001 -0.000000 -0.000000 0.976164 7.422061 -32.221728 5.809223 1.256776 -45.781115 0.000004 0.000000 -0.000003 -1.227810 6.340708 -44.477857 7.491175 2.055259 -50.574443 -0.000001 0.000003 -0.000003 -5.698664 1.174845 -43.952749 10.001149 3.459254 -50.341964 -0.000002 -0.000003 0.000001 0.000002 -0.000000 -0.000000 0.754097 2.028301 20.225947 -4.095133 -2.270935 61.874882 17.087373 10.182710 -3.312649 -4.329853 13.626097 -12.749896 3.824811 -12.345970 -1.042568 4.523896 -9.504798 0.488633 -0.000000 0.000000 0.000002 3.545368 -9.668671 69.326686 8.886339 -3.241680 112.372567 0.000001 -0.000001 0.000007 5.660029 -9.815699 93.151705 8.809074 -2.682467 83.366291 -0.000000 0.000000 0.000001 4.831694 -12.380517 97.852493 10.912788 -3.225626 91.663516 0.000002 0.000000 0.000002 0.270008 -10.740427 93.149765 10.737839 -3.968356 60.274316 0.000001 -0.000000 0.000002 -0.000000 -0.000000 0.000000 0.000000 -0.000000 0.000000 0.000000 0.000000 -0.000000 0.000000 -0.000000 0.000000 0.000000 -0.000000 0.000000 0.000000 -0.000000 0.000000 0.000000 0.000000 -0.000000 0.000000 -0.000000 0.000000 0.000000 -0.000000 0.000000 0.000000 -0.000000 0.000000 0.000000 0.000000 -0.000000 -0.000000 0.000000 0.000000 -0.000000 0.000000 0.000000 -0.000000 0.000000 0.000000 
-0.036113 69.835838 111.407310 -2.259907 -0.268018 -0.967194 -0.000000 -0.000000 0.000000 -22.669888 6.185474 -0.584697 66.222830 22.508409 1.142487 -4.196196 -0.331438 3.003744 0.000001 0.000002 -0.000001 0.000001 -0.000000 0.000001 -9.992946 -2.275381 6.157500 23.975458 -6.749678 -0.347507 -13.695317 0.458447 -3.797994 0.000000 -0.000001 -0.000000 0.000001 0.000000 -0.000001 1.799710 -1.328387 0.934291 3.579705 -2.533197 0.673626 3.579706 -2.533199 0.673625 -2.439522 1.360548 -0.177262 -0.111973 5.844297 -0.079483 0.000000 -0.000000 -0.000000 0.000000 -0.000000 -0.000000 0.000000 -0.000000 -0.000000 0.000000 -0.000000 -0.000000 0.000000 0.000000 0.000000 0.000000 -0.000000 -0.000000 0.000000 0.000000 0.000000 0.000000 -0.000000 -0.000000 0.000000 -0.000000 -0.000000 0.442705 -8.235238 -13.151897 -0.624809 -8.808442 -59.472260 19.132383 -19.316356 6.827566 -5.405354 -8.531738 1.793558 25.111250 -2.687232 20.499110 9.304982 24.441169 -0.847878 0.000002 0.000000 -0.000007 0.599991 6.911492 -23.883882 2.733476 1.542670 -36.765990 0.000002 -0.000001 -0.000004 0.976163 7.422059 -32.221735 5.809224 1.256776 -45.781112 0.000001 0.000001 0.000001 -1.227812 6.340710 -44.477861 7.491176 2.055262 -50.574440 -0.000001 -0.000002 0.000001 -5.698662 1.174845 -43.952756 10.001150 3.459252 -50.341961 -0.000002 -0.000001 0.000001 -0.000002 0.000000 0.000001 0.662848 2.643781 20.148732 -3.947846 -2.327099 62.260323 16.631079 11.939508 -3.786026 -4.421763 12.103429 -12.551291 3.824812 -12.345970 -1.042564 4.523897 -9.504798 0.488634 -0.000001 0.000000 0.000001 3.545368 -9.668666 69.326693 8.886340 -3.241681 112.372560 0.000002 -0.000001 -0.000002 5.660031 -9.815700 93.151705 8.809076 -2.682469 83.366277 0.000001 0.000001 -0.000002 4.831695 -12.380514 97.852493 10.912787 -3.225623 91.663516 0.000000 0.000000 0.000002 0.270008 -10.740426 93.149772 10.737841 -3.968355 60.274323 0.000001 0.000001 0.000004 0.000000 -0.000000 -0.000001 -0.000001 0.000000 -0.000000 -0.000001 0.000000 -0.000000 -0.000001 0.000000 -0.000000 -0.000001 0.000000 -0.000000 -0.000001 0.000000 -0.000000 -0.000001 0.000000 -0.000000 -0.000001 0.000000 -0.000000 -0.000001 0.000000 -0.000000 -0.000001 0.000000 -0.000000 -0.000001 0.000000 -0.000000 -0.000000 -0.000000 0.000000 -0.000000 -0.000000 0.000000 -0.000000 -0.000000 0.000000 
-0.036113 69.835838 111.407310 -2.259907 -0.268018 -0.967194 -0.000000 -0.000000 0.000000 -22.669888 6.185474 -0.584697 66.222830 22.508409 1.142487 -4.196196 -0.331438 3.003744 0.000001 0.000002 -0.000001 0.000001 -0.000000 0.000001 -9.992946 -2.275381 6.157500 23.975458 -6.749678 -0.347507 -13.695317 0.458447 -3.797994 0.000000 -0.000001 -0.000000 0.000001 0.000000 -0.000001 1.799710 -1.328387 0.934291 3.579705 -2.533197 0.673626 3.579706 -2.533199 0.673625 -2.439522 1.360548 -0.177262 -0.111973 5.844297 -0.079483 0.000000 -0.000000 -0.000000 0.000000 -0.000000 -0.000000 0.000000 -0.000000 -0.000000 0.000000 -0.000000 -0.000000 0.000000 0.000000 0.000000 0.000000 -0.000000 -0.000000 0.000000 0.000000 0.000000 0.000000 -0.000000 -0.000000 0.000000 -0.000000 -0.000000 0.442705 -8.235238 -13.151897 -0.624809 -8.808442 -59.472260 19.132383 -19.316356 6.827566 -5.405354 -8.531738 1.793558 25.111250 -2.687232 20.499110 9.304982 24.441169 -0.847878 0.000002 0.000000 -0.000007 0.599991 6.911492 -23.883882 2.733476 1.542670 -36.765990 0.000002 -0.000001 -0.000004 0.976163 7.422059 -32.221735 5.809224 1.256776 -45.781112 0.000001 0.000001 0.000001 -1.227812 6.340710 -44.477861 7.491176 2.055262 -50.574440 -0.000001 -0.000002 0.000001 -5.698662 1.174845 -43.952756 10.001150 3.459252 -50.341961 -0.000002 -0.000001 0.000001 -0.000002 0.000000 0.000001 0.662848 2.643781 20.148732 -3.947846 -2.327099 62.260323 16.631079 11.939508 -3.786026 -4.421763 12.103429 -12.551291 3.824812 -12.345970 -1.042564 4.523897 -9.504798 0.488634 -0.000001 0.000000 0.000001 3.545368 -9.668666 69.326693 8.886340 -3.241681 112.372560 0.000002 -0.000001 -0.000002 5.660031 -9.815700 93.151705 8.809076 -2.682469 83.366277 0.000001 0.000001 -0.000002 4.831695 -12.380514 97.852493 10.912787 -3.225623 91.663516 0.000000 0.000000 0.000002 0.270008 -10.740426 93.149772 10.737841 -3.968355 60.274323 0.000001 0.000001 0.000004 0.000000 -0.000000 -0.000001 -0.000001 0.000000 -0.000000 -0.000001 0.000000 -0.000000 -0.000001 0.000000 -0.000000 -0.000001 0.000000 -0.000000 -0.000001 0.000000 -0.000000 -0.000001 0.000000 -0.000000 -0.000001 0.000000 -0.000000 -0.000001 0.000000 -0.000000 -0.000001 0.000000 -0.000000 -0.000001 0.000000 -0.000000 -0.000000 -0.000000 0.000000 -0.000000 -0.000000 0.000000 -0.000000 -0.000000 0.000000 
